<?xml version="1.0" encoding="UTF-8" standalone="no" ?>
<!DOCTYPE svg PUBLIC "-//W3C//DTD SVG 1.1//EN" "http://www.w3.org/Graphics/SVG/1.1/DTD/svg11.dtd">
<svg xmlns="http://www.w3.org/2000/svg" xmlns:xlink="http://www.w3.org/1999/xlink" version="1.1" width="1080" height="1080" viewBox="0 0 1080 1080" xml:space="preserve">
<desc>Created with Fabric.js 5.2.4</desc>
<defs>
</defs>
<g transform="matrix(1 0 0 1 540 540)" id="04ce2dc3-dc7c-4d24-8a59-1b463079622b"  >
</g>
<g transform="matrix(1 0 0 1 540 540)" id="7efe866c-ea35-4db6-839e-b20032aa7cd3"  >
<rect style="stroke: none; stroke-width: 1; stroke-dasharray: none; stroke-linecap: butt; stroke-dashoffset: 0; stroke-linejoin: miter; stroke-miterlimit: 4; fill: rgb(255,255,255); fill-rule: nonzero; opacity: 1; visibility: hidden;" vector-effect="non-scaling-stroke"  x="-540" y="-540" rx="0" ry="0" width="1080" height="1080" />
</g>
<g transform="matrix(1 0 0 1 540 540)"  >
<path style="stroke: rgb(0,0,0); stroke-width: 0.5; stroke-dasharray: none; stroke-linecap: round; stroke-dashoffset: 0; stroke-linejoin: miter; stroke-miterlimit: 10; fill: rgb(255,255,255); fill-rule: nonzero; opacity: 1;" vector-effect="non-scaling-stroke"  transform=" translate(-20.43, -331.82)" d="M 20.59437 339.08589 L 15.755360000000001 339.45812 C 15.755360000000001 339.45812 14.937170000000002 339.27794 14.732860000000002 338.85434000000004 C 14.550750000000003 338.47675000000004 14.588410000000001 337.03862000000004 14.588410000000001 337.03862000000004 C 14.588410000000001 337.03862000000004 16.49135 337.01796 17.946440000000003 337.78916000000004 C 18.50757 338.08656 19.620410000000003 338.83492 20.91129 339.10966 C 21.09852 339.14951 21.661730000000002 339.19114 21.85531 339.23514 C 23.19652 339.53999 24.29055 339.40021 25.50266 340.12744 C 26.60191 340.78695999999997 27.641759999999998 341.35213999999996 28.45224 342.36278 C 28.82843 342.83187 29.00919 343.83499 29.386969999999998 344.19775 C 31.384759999999996 346.11609 33.19998 346.90274 33.19998 346.90274 L 34.68891 346.15828 C 34.68891 346.15828 36.23729 342.45484999999996 35.05897 340.64141 C 33.34141 337.99806 28.913360000000004 330.71068 28.913360000000004 330.71068 C 28.913360000000004 330.71068 28.631360000000004 329.98229000000003 30.215810000000005 329.99971000000005 C 31.744160000000004 330.01651000000004 33.03186 330.6874700000001 35.41181 330.81526 C 37.264030000000005 330.91471 39.75929 330.54738000000003 41.75506 330.50915000000003 C 44.38952 330.45867000000004 46.429990000000004 330.70527000000004 47.70536 330.62269000000003 C 50.68584 330.42971000000006 54.78345 329.03565000000003 54.78345 329.03565000000003 L 56.272380000000005 326.05780000000004 L 55.15569000000001 323.07995000000005 C 55.15569000000001 323.07995000000005 46.84888000000001 323.47242000000006 43.604670000000006 323.26687000000004 C 41.30695000000001 323.12129000000004 37.903130000000004 322.14937000000003 37.903130000000004 322.14937000000003 C 37.903130000000004 322.14937000000003 29.926570000000005 320.66631 23.727350000000005 319.75435000000004 C 20.850960000000004 319.33121000000006 18.357210000000006 319.32311000000004 17.220460000000003 319.11643000000004 C 15.877800000000002 318.87231 15.383120000000003 318.05483000000004 15.383120000000003 318.05483000000004 C 15.383120000000003 318.05483000000004 13.930140000000003 316.48047 13.516560000000004 316.41284 C 13.204920000000003 316.36187 12.786890000000003 315.83615000000003 12.160300000000003 315.66622 C 11.152330000000003 315.39286 9.900150000000004 315.44921 9.900150000000004 315.44921 C 9.900150000000004 315.44921 3.2558600000000038 318.35388 -2.5127399999999973 321.32905 C -5.720159999999997 322.98328 -8.528279999999997 325.04504 -10.080689999999997 325.71851 C -12.022359999999997 326.56086 -15.411589999999997 326.43003 -15.411589999999997 326.43003 L -7.225469999999996 345.41384 C -7.225469999999996 345.41384 -1.0171499999999964 347.23687 2.2598800000000043 347.69423 C 5.646890000000004 348.16694 12.777510000000005 348.20558 12.777510000000005 348.20558 C 12.777510000000005 348.20558 16.364680000000003 347.01706 18.415850000000006 346.65672 C 20.879520000000007 346.22391 26.550090000000004 345.78608 26.550090000000004 345.78608 L 31.202980000000004 347.46113 C 31.202980000000004 347.46113 31.746020000000005 347.30562000000003 31.835770000000004 347.12612 C 31.931720000000002 346.93422000000004 31.761330000000005 346.34444 31.761330000000005 346.34444 C 31.761330000000005 346.34444 30.635590000000004 345.72473 29.655720000000006 344.72666000000004 C 28.451260000000005 343.49982000000006 27.277000000000005 341.79640000000006 26.367590000000007 341.12826 C 25.053980000000006 340.16316 22.641650000000006 339.64427 22.641650000000006 339.64427" stroke-linecap="round" />
</g>
</svg>